<mxfile host="app.diagrams.net" modified="2024-05-20T11:34:37.593Z" agent="Mozilla/5.0 (Windows NT 10.0; Win64; x64) AppleWebKit/537.36 (KHTML, like Gecko) Chrome/125.0.0.0 Safari/537.36" etag="22Qcm7nh509qwG69lnZU" version="24.4.4" type="github">
  <diagram id="C5RBs43oDa-KdzZeNtuy" name="Page-1">
    <mxGraphModel dx="954" dy="510" grid="1" gridSize="10" guides="1" tooltips="1" connect="1" arrows="1" fold="1" page="1" pageScale="1" pageWidth="827" pageHeight="1169" math="0" shadow="0">
      <root>
        <mxCell id="WIyWlLk6GJQsqaUBKTNV-0" />
        <mxCell id="WIyWlLk6GJQsqaUBKTNV-1" parent="WIyWlLk6GJQsqaUBKTNV-0" />
        <mxCell id="AyPV1kMrxWXa0MFl7DFe-19" style="edgeStyle=orthogonalEdgeStyle;rounded=0;orthogonalLoop=1;jettySize=auto;html=1;" edge="1" parent="WIyWlLk6GJQsqaUBKTNV-1" source="WIyWlLk6GJQsqaUBKTNV-7" target="AyPV1kMrxWXa0MFl7DFe-1">
          <mxGeometry relative="1" as="geometry">
            <mxPoint x="350" y="210" as="targetPoint" />
          </mxGeometry>
        </mxCell>
        <mxCell id="WIyWlLk6GJQsqaUBKTNV-7" value="Mostrar Error" style="rounded=1;whiteSpace=wrap;html=1;fontSize=12;glass=0;strokeWidth=1;shadow=0;" parent="WIyWlLk6GJQsqaUBKTNV-1" vertex="1">
          <mxGeometry x="630" y="180" width="120" height="40" as="geometry" />
        </mxCell>
        <mxCell id="AyPV1kMrxWXa0MFl7DFe-20" style="edgeStyle=orthogonalEdgeStyle;rounded=0;orthogonalLoop=1;jettySize=auto;html=1;entryX=0.5;entryY=0;entryDx=0;entryDy=0;" edge="1" parent="WIyWlLk6GJQsqaUBKTNV-1" source="AyPV1kMrxWXa0MFl7DFe-0" target="AyPV1kMrxWXa0MFl7DFe-1">
          <mxGeometry relative="1" as="geometry" />
        </mxCell>
        <mxCell id="AyPV1kMrxWXa0MFl7DFe-0" value="./minishell" style="html=1;whiteSpace=wrap;aspect=fixed;shape=isoRectangle;" vertex="1" parent="WIyWlLk6GJQsqaUBKTNV-1">
          <mxGeometry x="339" y="10" width="150" height="90" as="geometry" />
        </mxCell>
        <mxCell id="AyPV1kMrxWXa0MFl7DFe-1" value="Prompt + loop`&lt;br&gt;(lectura e interactivos)" style="rounded=1;whiteSpace=wrap;html=1;fontSize=12;glass=0;strokeWidth=1;shadow=0;" vertex="1" parent="WIyWlLk6GJQsqaUBKTNV-1">
          <mxGeometry x="354" y="180" width="120" height="40" as="geometry" />
        </mxCell>
        <mxCell id="AyPV1kMrxWXa0MFl7DFe-14" style="edgeStyle=orthogonalEdgeStyle;rounded=0;orthogonalLoop=1;jettySize=auto;html=1;exitX=0.22;exitY=0.5;exitDx=0;exitDy=0;exitPerimeter=0;" edge="1" parent="WIyWlLk6GJQsqaUBKTNV-1" source="AyPV1kMrxWXa0MFl7DFe-7" target="AyPV1kMrxWXa0MFl7DFe-11">
          <mxGeometry relative="1" as="geometry">
            <Array as="points" />
          </mxGeometry>
        </mxCell>
        <mxCell id="AyPV1kMrxWXa0MFl7DFe-15" style="edgeStyle=orthogonalEdgeStyle;rounded=0;orthogonalLoop=1;jettySize=auto;html=1;entryX=0;entryY=0.5;entryDx=0;entryDy=0;exitX=0.78;exitY=0.5;exitDx=0;exitDy=0;exitPerimeter=0;" edge="1" parent="WIyWlLk6GJQsqaUBKTNV-1" source="AyPV1kMrxWXa0MFl7DFe-7" target="AyPV1kMrxWXa0MFl7DFe-12">
          <mxGeometry relative="1" as="geometry" />
        </mxCell>
        <mxCell id="AyPV1kMrxWXa0MFl7DFe-16" style="edgeStyle=orthogonalEdgeStyle;rounded=0;orthogonalLoop=1;jettySize=auto;html=1;entryX=0.5;entryY=0;entryDx=0;entryDy=0;" edge="1" parent="WIyWlLk6GJQsqaUBKTNV-1" source="AyPV1kMrxWXa0MFl7DFe-7" target="AyPV1kMrxWXa0MFl7DFe-13">
          <mxGeometry relative="1" as="geometry" />
        </mxCell>
        <mxCell id="AyPV1kMrxWXa0MFl7DFe-7" value="leer&lt;div&gt;args&lt;/div&gt;" style="strokeWidth=2;html=1;shape=mxgraph.flowchart.extract_or_measurement;whiteSpace=wrap;" vertex="1" parent="WIyWlLk6GJQsqaUBKTNV-1">
          <mxGeometry x="366" y="250" width="95" height="60" as="geometry" />
        </mxCell>
        <mxCell id="AyPV1kMrxWXa0MFl7DFe-9" style="edgeStyle=orthogonalEdgeStyle;rounded=0;orthogonalLoop=1;jettySize=auto;html=1;entryX=0.5;entryY=0;entryDx=0;entryDy=0;entryPerimeter=0;" edge="1" parent="WIyWlLk6GJQsqaUBKTNV-1" source="AyPV1kMrxWXa0MFl7DFe-1" target="AyPV1kMrxWXa0MFl7DFe-7">
          <mxGeometry relative="1" as="geometry" />
        </mxCell>
        <mxCell id="AyPV1kMrxWXa0MFl7DFe-21" style="edgeStyle=orthogonalEdgeStyle;rounded=0;orthogonalLoop=1;jettySize=auto;html=1;" edge="1" parent="WIyWlLk6GJQsqaUBKTNV-1" source="AyPV1kMrxWXa0MFl7DFe-11" target="AyPV1kMrxWXa0MFl7DFe-18">
          <mxGeometry relative="1" as="geometry" />
        </mxCell>
        <mxCell id="AyPV1kMrxWXa0MFl7DFe-11" value="vacio" style="rounded=1;whiteSpace=wrap;html=1;fontSize=12;glass=0;strokeWidth=1;shadow=0;" vertex="1" parent="WIyWlLk6GJQsqaUBKTNV-1">
          <mxGeometry x="172.5" y="260" width="120" height="40" as="geometry" />
        </mxCell>
        <mxCell id="AyPV1kMrxWXa0MFl7DFe-17" style="edgeStyle=orthogonalEdgeStyle;rounded=0;orthogonalLoop=1;jettySize=auto;html=1;entryX=0.5;entryY=1;entryDx=0;entryDy=0;" edge="1" parent="WIyWlLk6GJQsqaUBKTNV-1" source="AyPV1kMrxWXa0MFl7DFe-12" target="WIyWlLk6GJQsqaUBKTNV-7">
          <mxGeometry relative="1" as="geometry" />
        </mxCell>
        <mxCell id="AyPV1kMrxWXa0MFl7DFe-12" value="Análisis&amp;nbsp;&lt;div&gt;con errores&lt;/div&gt;" style="rounded=1;whiteSpace=wrap;html=1;fontSize=12;glass=0;strokeWidth=1;shadow=0;" vertex="1" parent="WIyWlLk6GJQsqaUBKTNV-1">
          <mxGeometry x="540" y="260" width="120" height="40" as="geometry" />
        </mxCell>
        <mxCell id="AyPV1kMrxWXa0MFl7DFe-25" style="edgeStyle=orthogonalEdgeStyle;rounded=0;orthogonalLoop=1;jettySize=auto;html=1;" edge="1" parent="WIyWlLk6GJQsqaUBKTNV-1" source="AyPV1kMrxWXa0MFl7DFe-13" target="AyPV1kMrxWXa0MFl7DFe-24">
          <mxGeometry relative="1" as="geometry" />
        </mxCell>
        <mxCell id="AyPV1kMrxWXa0MFl7DFe-13" value="Análisis&lt;div&gt;OK&lt;/div&gt;" style="rounded=1;whiteSpace=wrap;html=1;fontSize=12;glass=0;strokeWidth=1;shadow=0;" vertex="1" parent="WIyWlLk6GJQsqaUBKTNV-1">
          <mxGeometry x="354" y="340" width="120" height="40" as="geometry" />
        </mxCell>
        <mxCell id="AyPV1kMrxWXa0MFl7DFe-22" style="edgeStyle=orthogonalEdgeStyle;rounded=0;orthogonalLoop=1;jettySize=auto;html=1;" edge="1" parent="WIyWlLk6GJQsqaUBKTNV-1" source="AyPV1kMrxWXa0MFl7DFe-18" target="AyPV1kMrxWXa0MFl7DFe-1">
          <mxGeometry relative="1" as="geometry" />
        </mxCell>
        <mxCell id="AyPV1kMrxWXa0MFl7DFe-18" value="Mostrar&lt;div&gt;&quot;\n&quot;&lt;/div&gt;" style="rounded=1;whiteSpace=wrap;html=1;fontSize=12;glass=0;strokeWidth=1;shadow=0;" vertex="1" parent="WIyWlLk6GJQsqaUBKTNV-1">
          <mxGeometry y="180" width="120" height="40" as="geometry" />
        </mxCell>
        <mxCell id="AyPV1kMrxWXa0MFl7DFe-28" style="edgeStyle=orthogonalEdgeStyle;rounded=0;orthogonalLoop=1;jettySize=auto;html=1;entryX=0.5;entryY=0;entryDx=0;entryDy=0;" edge="1" parent="WIyWlLk6GJQsqaUBKTNV-1" source="AyPV1kMrxWXa0MFl7DFe-24" target="AyPV1kMrxWXa0MFl7DFe-27">
          <mxGeometry relative="1" as="geometry" />
        </mxCell>
        <mxCell id="AyPV1kMrxWXa0MFl7DFe-24" value="Expandir&amp;nbsp;&lt;div&gt;variables&lt;/div&gt;" style="rounded=1;whiteSpace=wrap;html=1;fontSize=12;glass=0;strokeWidth=1;shadow=0;" vertex="1" parent="WIyWlLk6GJQsqaUBKTNV-1">
          <mxGeometry x="354" y="410" width="120" height="40" as="geometry" />
        </mxCell>
        <mxCell id="AyPV1kMrxWXa0MFl7DFe-27" value="saltar&lt;div&gt;&lt;div&gt;redirecciones&lt;/div&gt;&lt;/div&gt;" style="rounded=1;whiteSpace=wrap;html=1;fontSize=12;glass=0;strokeWidth=1;shadow=0;" vertex="1" parent="WIyWlLk6GJQsqaUBKTNV-1">
          <mxGeometry x="354" y="480" width="120" height="40" as="geometry" />
        </mxCell>
        <mxCell id="AyPV1kMrxWXa0MFl7DFe-32" value="&lt;font style=&quot;font-size: 30px;&quot;&gt;NO&lt;/font&gt;" style="edgeStyle=orthogonalEdgeStyle;rounded=0;orthogonalLoop=1;jettySize=auto;html=1;exitX=0.78;exitY=0.5;exitDx=0;exitDy=0;exitPerimeter=0;entryX=0.75;entryY=1;entryDx=0;entryDy=0;" edge="1" parent="WIyWlLk6GJQsqaUBKTNV-1" source="AyPV1kMrxWXa0MFl7DFe-30" target="WIyWlLk6GJQsqaUBKTNV-7">
          <mxGeometry relative="1" as="geometry">
            <mxPoint x="590" y="330" as="targetPoint" />
          </mxGeometry>
        </mxCell>
        <mxCell id="AyPV1kMrxWXa0MFl7DFe-41" value="&lt;font style=&quot;font-size: 30px;&quot;&gt;SÍ&lt;/font&gt;" style="edgeStyle=orthogonalEdgeStyle;rounded=0;orthogonalLoop=1;jettySize=auto;html=1;" edge="1" parent="WIyWlLk6GJQsqaUBKTNV-1" source="AyPV1kMrxWXa0MFl7DFe-30" target="AyPV1kMrxWXa0MFl7DFe-33">
          <mxGeometry relative="1" as="geometry" />
        </mxCell>
        <mxCell id="AyPV1kMrxWXa0MFl7DFe-30" value="existe&lt;div&gt;todo?&lt;/div&gt;" style="strokeWidth=2;html=1;shape=mxgraph.flowchart.extract_or_measurement;whiteSpace=wrap;" vertex="1" parent="WIyWlLk6GJQsqaUBKTNV-1">
          <mxGeometry x="366" y="555" width="95" height="60" as="geometry" />
        </mxCell>
        <mxCell id="AyPV1kMrxWXa0MFl7DFe-31" style="edgeStyle=orthogonalEdgeStyle;rounded=0;orthogonalLoop=1;jettySize=auto;html=1;entryX=0.5;entryY=0;entryDx=0;entryDy=0;entryPerimeter=0;" edge="1" parent="WIyWlLk6GJQsqaUBKTNV-1" source="AyPV1kMrxWXa0MFl7DFe-27" target="AyPV1kMrxWXa0MFl7DFe-30">
          <mxGeometry relative="1" as="geometry" />
        </mxCell>
        <mxCell id="AyPV1kMrxWXa0MFl7DFe-33" value="saltar&lt;div&gt;&lt;div&gt;redirecciones&lt;/div&gt;&lt;/div&gt;" style="rounded=1;whiteSpace=wrap;html=1;fontSize=12;glass=0;strokeWidth=1;shadow=0;" vertex="1" parent="WIyWlLk6GJQsqaUBKTNV-1">
          <mxGeometry x="354" y="670" width="120" height="40" as="geometry" />
        </mxCell>
        <mxCell id="AyPV1kMrxWXa0MFl7DFe-34" value="ejecución&lt;div&gt;(PIPEX&lt;span style=&quot;background-color: initial;&quot;&gt;)&lt;/span&gt;&lt;/div&gt;" style="rounded=1;whiteSpace=wrap;html=1;fontSize=12;glass=0;strokeWidth=1;shadow=0;" vertex="1" parent="WIyWlLk6GJQsqaUBKTNV-1">
          <mxGeometry x="354" y="950" width="120" height="40" as="geometry" />
        </mxCell>
        <mxCell id="AyPV1kMrxWXa0MFl7DFe-55" style="edgeStyle=orthogonalEdgeStyle;rounded=0;orthogonalLoop=1;jettySize=auto;html=1;entryX=0.5;entryY=1;entryDx=0;entryDy=0;" edge="1" parent="WIyWlLk6GJQsqaUBKTNV-1" source="AyPV1kMrxWXa0MFl7DFe-35" target="AyPV1kMrxWXa0MFl7DFe-18">
          <mxGeometry relative="1" as="geometry" />
        </mxCell>
        <mxCell id="AyPV1kMrxWXa0MFl7DFe-35" value="mostrar&lt;div&gt;salida&lt;/div&gt;" style="rounded=1;whiteSpace=wrap;html=1;fontSize=12;glass=0;strokeWidth=1;shadow=0;" vertex="1" parent="WIyWlLk6GJQsqaUBKTNV-1">
          <mxGeometry x="354" y="1380" width="120" height="40" as="geometry" />
        </mxCell>
        <mxCell id="AyPV1kMrxWXa0MFl7DFe-36" value="cerrar&lt;div&gt;archivos&lt;/div&gt;" style="rounded=1;whiteSpace=wrap;html=1;fontSize=12;glass=0;strokeWidth=1;shadow=0;" vertex="1" parent="WIyWlLk6GJQsqaUBKTNV-1">
          <mxGeometry x="354" y="1160" width="120" height="40" as="geometry" />
        </mxCell>
        <mxCell id="AyPV1kMrxWXa0MFl7DFe-47" style="edgeStyle=orthogonalEdgeStyle;rounded=0;orthogonalLoop=1;jettySize=auto;html=1;exitX=0.5;exitY=1;exitDx=0;exitDy=0;" edge="1" parent="WIyWlLk6GJQsqaUBKTNV-1" source="AyPV1kMrxWXa0MFl7DFe-34" target="AyPV1kMrxWXa0MFl7DFe-45">
          <mxGeometry relative="1" as="geometry" />
        </mxCell>
        <mxCell id="AyPV1kMrxWXa0MFl7DFe-49" style="edgeStyle=orthogonalEdgeStyle;rounded=0;orthogonalLoop=1;jettySize=auto;html=1;entryX=0.5;entryY=0;entryDx=0;entryDy=0;" edge="1" parent="WIyWlLk6GJQsqaUBKTNV-1" source="AyPV1kMrxWXa0MFl7DFe-37" target="AyPV1kMrxWXa0MFl7DFe-34">
          <mxGeometry relative="1" as="geometry" />
        </mxCell>
        <mxCell id="AyPV1kMrxWXa0MFl7DFe-37" value="aplicar&lt;div&gt;redirecciones&lt;/div&gt;" style="rounded=1;whiteSpace=wrap;html=1;fontSize=12;glass=0;strokeWidth=1;shadow=0;" vertex="1" parent="WIyWlLk6GJQsqaUBKTNV-1">
          <mxGeometry x="354" y="880" width="120" height="40" as="geometry" />
        </mxCell>
        <mxCell id="AyPV1kMrxWXa0MFl7DFe-43" style="edgeStyle=orthogonalEdgeStyle;rounded=0;orthogonalLoop=1;jettySize=auto;html=1;exitX=0.78;exitY=0.5;exitDx=0;exitDy=0;exitPerimeter=0;" edge="1" parent="WIyWlLk6GJQsqaUBKTNV-1" source="AyPV1kMrxWXa0MFl7DFe-38">
          <mxGeometry relative="1" as="geometry">
            <mxPoint x="660" y="580" as="targetPoint" />
          </mxGeometry>
        </mxCell>
        <mxCell id="AyPV1kMrxWXa0MFl7DFe-38" value="todo&lt;div&gt;ok?&lt;/div&gt;" style="strokeWidth=2;html=1;shape=mxgraph.flowchart.extract_or_measurement;whiteSpace=wrap;" vertex="1" parent="WIyWlLk6GJQsqaUBKTNV-1">
          <mxGeometry x="366" y="750" width="95" height="60" as="geometry" />
        </mxCell>
        <mxCell id="AyPV1kMrxWXa0MFl7DFe-42" style="edgeStyle=orthogonalEdgeStyle;rounded=0;orthogonalLoop=1;jettySize=auto;html=1;entryX=0.5;entryY=0;entryDx=0;entryDy=0;entryPerimeter=0;" edge="1" parent="WIyWlLk6GJQsqaUBKTNV-1" source="AyPV1kMrxWXa0MFl7DFe-33" target="AyPV1kMrxWXa0MFl7DFe-38">
          <mxGeometry relative="1" as="geometry" />
        </mxCell>
        <mxCell id="AyPV1kMrxWXa0MFl7DFe-44" value="&lt;font style=&quot;font-size: 30px;&quot;&gt;SÍ&lt;/font&gt;" style="edgeStyle=orthogonalEdgeStyle;rounded=0;orthogonalLoop=1;jettySize=auto;html=1;exitX=0.5;exitY=1;exitDx=0;exitDy=0;exitPerimeter=0;" edge="1" parent="WIyWlLk6GJQsqaUBKTNV-1" source="AyPV1kMrxWXa0MFl7DFe-38" target="AyPV1kMrxWXa0MFl7DFe-37">
          <mxGeometry relative="1" as="geometry">
            <mxPoint x="210" y="870" as="sourcePoint" />
            <mxPoint x="490" y="920" as="targetPoint" />
          </mxGeometry>
        </mxCell>
        <mxCell id="AyPV1kMrxWXa0MFl7DFe-53" style="edgeStyle=orthogonalEdgeStyle;rounded=0;orthogonalLoop=1;jettySize=auto;html=1;" edge="1" parent="WIyWlLk6GJQsqaUBKTNV-1" source="AyPV1kMrxWXa0MFl7DFe-45">
          <mxGeometry relative="1" as="geometry">
            <mxPoint x="660" y="586" as="targetPoint" />
          </mxGeometry>
        </mxCell>
        <mxCell id="AyPV1kMrxWXa0MFl7DFe-45" value="todo&lt;div&gt;ok?&lt;/div&gt;" style="strokeWidth=2;html=1;shape=mxgraph.flowchart.extract_or_measurement;whiteSpace=wrap;" vertex="1" parent="WIyWlLk6GJQsqaUBKTNV-1">
          <mxGeometry x="366" y="1030" width="95" height="60" as="geometry" />
        </mxCell>
        <mxCell id="AyPV1kMrxWXa0MFl7DFe-54" style="edgeStyle=orthogonalEdgeStyle;rounded=0;orthogonalLoop=1;jettySize=auto;html=1;" edge="1" parent="WIyWlLk6GJQsqaUBKTNV-1" source="AyPV1kMrxWXa0MFl7DFe-46">
          <mxGeometry relative="1" as="geometry">
            <mxPoint x="660" y="580" as="targetPoint" />
          </mxGeometry>
        </mxCell>
        <mxCell id="AyPV1kMrxWXa0MFl7DFe-46" value="todo&lt;div&gt;ok?&lt;/div&gt;" style="strokeWidth=2;html=1;shape=mxgraph.flowchart.extract_or_measurement;whiteSpace=wrap;" vertex="1" parent="WIyWlLk6GJQsqaUBKTNV-1">
          <mxGeometry x="366.5" y="1250" width="95" height="60" as="geometry" />
        </mxCell>
        <mxCell id="AyPV1kMrxWXa0MFl7DFe-48" value="&lt;font style=&quot;font-size: 30px;&quot;&gt;SÍ&lt;/font&gt;" style="edgeStyle=orthogonalEdgeStyle;rounded=0;orthogonalLoop=1;jettySize=auto;html=1;exitX=0.5;exitY=1;exitDx=0;exitDy=0;exitPerimeter=0;entryX=0.5;entryY=0;entryDx=0;entryDy=0;" edge="1" parent="WIyWlLk6GJQsqaUBKTNV-1" source="AyPV1kMrxWXa0MFl7DFe-45" target="AyPV1kMrxWXa0MFl7DFe-36">
          <mxGeometry relative="1" as="geometry">
            <mxPoint x="230" y="820" as="sourcePoint" />
            <mxPoint x="230" y="880" as="targetPoint" />
          </mxGeometry>
        </mxCell>
        <mxCell id="AyPV1kMrxWXa0MFl7DFe-50" style="edgeStyle=orthogonalEdgeStyle;rounded=0;orthogonalLoop=1;jettySize=auto;html=1;entryX=0.5;entryY=0;entryDx=0;entryDy=0;entryPerimeter=0;" edge="1" parent="WIyWlLk6GJQsqaUBKTNV-1" source="AyPV1kMrxWXa0MFl7DFe-36" target="AyPV1kMrxWXa0MFl7DFe-46">
          <mxGeometry relative="1" as="geometry" />
        </mxCell>
        <mxCell id="AyPV1kMrxWXa0MFl7DFe-51" value="&lt;font style=&quot;font-size: 30px;&quot;&gt;SÍ&lt;/font&gt;" style="edgeStyle=orthogonalEdgeStyle;rounded=0;orthogonalLoop=1;jettySize=auto;html=1;exitX=0.5;exitY=1;exitDx=0;exitDy=0;exitPerimeter=0;entryX=0.5;entryY=0;entryDx=0;entryDy=0;" edge="1" parent="WIyWlLk6GJQsqaUBKTNV-1" source="AyPV1kMrxWXa0MFl7DFe-46" target="AyPV1kMrxWXa0MFl7DFe-35">
          <mxGeometry relative="1" as="geometry">
            <mxPoint x="230" y="1110" as="sourcePoint" />
            <mxPoint x="230" y="1179" as="targetPoint" />
          </mxGeometry>
        </mxCell>
      </root>
    </mxGraphModel>
  </diagram>
</mxfile>
